# xmcd CD database file
#
# Track frame offsets:
#	150
#	17729
#	34756
#	54351
#	68810
#	87013
#	105384
#
# Disc length: 1657 seconds
#
# Revision: 2
# Processed by: cddbd v1.5.1PL0 Copyright (c) Steve Scherf et al.
# Submitted via: CDex 1.51
#
DISCID=4a067707
DTITLE=Rick Clayton - Desert Ballads ...And Other Love Songs
DYEAR=2004
DGENRE=Blues
TTITLE0=Born So Cool
TTITLE1=Shiny Black Boots
TTITLE2=Dancin' Through The Wreckage
TTITLE3=Fear 101
TTITLE4=Burning Down The Strawman
TTITLE5=Take me By The Hand
TTITLE6=Pokin' Holes
EXTD=YEAR: 2004
EXTT0=
EXTT1=
EXTT2=
EXTT3=
EXTT4=
EXTT5=
EXTT6=
PLAYORDER=
